<svg width="90" height="90" viewBox="0 0 90 90" fill="none" xmlns="http://www.w3.org/2000/svg">
<path d="M19.9594 13.2351C8.95393 13.2351 0.00146484 22.1876 0.00146484 33.1932C0.00146484 43.8101 8.33321 52.518 18.8018 53.1196C18.983 55.0765 18.847 60.4035 13.7425 67.8138C13.3566 68.3728 13.4267 69.1266 13.9059 69.6059C15.9947 71.6947 17.2857 73.0103 18.1892 73.9304C19.3717 75.1334 19.9114 75.6827 20.701 76.3996C20.9688 76.6426 21.3066 76.7648 21.6459 76.7648C21.9754 76.7648 22.3036 76.6495 22.5687 76.4202C31.4635 68.6803 41.3444 52.6883 39.9148 33.0915C39.0771 21.5861 30.6849 13.2351 19.9594 13.2351ZM21.6595 73.4374C21.2765 73.0598 20.8397 72.6148 20.1956 71.9597C19.4129 71.1619 18.339 70.0687 16.7102 68.4345C22.9052 58.8887 21.7351 52.0896 21.2229 51.1146C20.9798 50.6518 20.4812 50.34 19.9594 50.34C10.5057 50.34 2.81396 42.6482 2.81396 33.1932C2.81396 23.7394 10.5057 16.0476 19.9594 16.0476C29.1688 16.0476 36.3813 23.3013 37.1104 33.2947C38.7172 55.3361 25.6174 69.6471 21.6595 73.4374Z" fill="#445964"/>
<path d="M89.86 33.0915V33.0901C89.0194 21.5861 80.626 13.2351 69.9033 13.2351C58.8977 13.2351 49.9438 22.1876 49.9438 33.1932C49.9438 43.8101 58.277 52.518 68.7469 53.1196C68.9282 55.0751 68.7908 60.3993 63.685 67.8138C63.2991 68.3728 63.3692 69.1266 63.8484 69.6059C65.929 71.6864 67.2171 72.9993 68.1207 73.918C69.3086 75.1292 69.8511 75.6813 70.6448 76.4009C70.9126 76.6426 71.2518 76.7648 71.5897 76.7648C71.9193 76.7648 72.2475 76.6495 72.5125 76.4188C81.4073 68.6789 91.2881 52.687 89.86 33.0915ZM71.6033 73.4374C71.2174 73.057 70.7767 72.6094 70.127 71.9474C69.3443 71.1508 68.2746 70.0605 66.6526 68.4345C72.8476 58.8873 71.679 52.0896 71.1681 51.1146C70.9249 50.6532 70.4252 50.34 69.9033 50.34C60.4481 50.34 52.7563 42.6482 52.7563 33.1932C52.7563 23.7394 60.4481 16.0476 69.9033 16.0476C79.1111 16.0476 86.3251 23.3013 87.0556 33.2961V33.2947C88.661 55.3333 75.5612 69.6471 71.6033 73.4374Z" fill="#445964"/>
</svg>
