<svg width="40" height="41" viewBox="0 0 40 41" fill="none" xmlns="http://www.w3.org/2000/svg">
<path d="M20.0488 10.3381C14.3891 10.3381 9.80713 14.9251 9.80713 20.5798C9.80713 26.2396 14.3941 30.8215 20.0488 30.8215C25.7085 30.8215 30.2905 26.2346 30.2905 20.5798C30.2905 14.9201 25.7036 10.3381 20.0488 10.3381V10.3381ZM20.0488 27.2275C16.3749 27.2275 13.4012 24.2521 13.4012 20.5798C13.4012 16.9076 16.3766 13.9322 20.0488 13.9322C23.7211 13.9322 26.6965 16.9076 26.6965 20.5798C26.6981 24.2521 23.7227 27.2275 20.0488 27.2275V27.2275Z" fill="white"/>
<path d="M28.2715 0.755018C24.5993 0.583713 15.5035 0.592029 11.8279 0.755018C8.59805 0.906365 5.74907 1.68638 3.45225 3.9832C-0.38631 7.82176 0.10432 12.9942 0.10432 20.5798C0.10432 28.3434 -0.3281 33.3961 3.45225 37.1764C7.30578 41.0283 12.553 40.5244 20.0489 40.5244C27.7393 40.5244 30.3937 40.5294 33.1129 39.4766C36.8101 38.0413 39.6009 34.7366 39.8737 28.8008C40.0466 25.1269 40.0367 16.0328 39.8737 12.3572C39.5444 5.35031 35.784 1.10095 28.2715 0.755018V0.755018ZM34.0842 34.6368C31.5679 37.1531 28.0769 36.9286 20.0006 36.9286C11.6849 36.9286 8.35024 37.0517 5.91704 34.6118C3.11463 31.8227 3.62189 27.3439 3.62189 20.5532C3.62189 11.3643 2.67888 4.74659 11.9011 4.27425C14.0199 4.19941 14.6436 4.17446 19.9774 4.17446L20.0522 4.22436C28.9151 4.22436 35.8688 3.29632 36.2862 12.5168C36.381 14.6207 36.4027 15.2527 36.4027 20.5782C36.401 28.7975 36.5573 32.152 34.0842 34.6368V34.6368Z" fill="white"/>
<path d="M30.6965 12.3273C32.0183 12.3273 33.0898 11.2558 33.0898 9.93405C33.0898 8.61228 32.0183 7.54077 30.6965 7.54077C29.3747 7.54077 28.3032 8.61228 28.3032 9.93405C28.3032 11.2558 29.3747 12.3273 30.6965 12.3273Z" fill="white"/>
</svg>
