<svg width="40" height="40" viewBox="0 0 40 40" fill="none" xmlns="http://www.w3.org/2000/svg">
<path d="M39.9483 39.9157V39.914H39.9583V25.2749C39.9583 18.1134 38.4166 12.5967 30.0443 12.5967C26.0194 12.5967 23.3185 14.8054 22.2158 16.8993H22.0994V13.2653H14.1611V39.914H22.427V26.7185C22.427 23.2442 23.0856 19.8846 27.3882 19.8846C31.6276 19.8846 31.6908 23.8496 31.6908 26.9414V39.9157H39.9483Z" fill="white"/>
<path d="M0.701172 13.2668H8.97703V39.9156H0.701172V13.2668Z" fill="white"/>
<path d="M4.83569 0C2.18961 0 0.0424805 2.14713 0.0424805 4.79321C0.0424805 7.43929 2.18961 9.63133 4.83569 9.63133C7.48177 9.63133 9.6289 7.43929 9.6289 4.79321C9.62724 2.14713 7.48011 0 4.83569 0V0Z" fill="white"/>
</svg>
