<svg width="40" height="41" viewBox="0 0 40 41" fill="none" xmlns="http://www.w3.org/2000/svg">
<path d="M20.0491 10.3381C14.3894 10.3381 9.80737 14.9251 9.80737 20.5798C9.80737 26.2396 14.3944 30.8215 20.0491 30.8215C25.7088 30.8215 30.2908 26.2346 30.2908 20.5798C30.2908 14.9201 25.7038 10.3381 20.0491 10.3381ZM20.0491 27.2275C16.3752 27.2275 13.4014 24.2521 13.4014 20.5798C13.4014 16.9076 16.3768 13.9322 20.0491 13.9322C23.7213 13.9322 26.6967 16.9076 26.6967 20.5798C26.6984 24.2521 23.723 27.2275 20.0491 27.2275Z" fill="#445964"/>
<path d="M28.2717 0.755018C24.5995 0.583713 15.5037 0.592029 11.8281 0.755018C8.59829 0.906365 5.74931 1.68638 3.45249 3.9832C-0.386066 7.82176 0.104564 12.9942 0.104564 20.5798C0.104564 28.3434 -0.327856 33.3961 3.45249 37.1764C7.30602 41.0283 12.5533 40.5244 20.0491 40.5244C27.7395 40.5244 30.3939 40.5294 33.1132 39.4766C36.8104 38.0413 39.6012 34.7366 39.8739 28.8008C40.0469 25.1269 40.0369 16.0328 39.8739 12.3572C39.5446 5.35031 35.7842 1.10095 28.2717 0.755018ZM34.0845 34.6368C31.5681 37.1531 28.0772 36.9286 20.0009 36.9286C11.6851 36.9286 8.35048 37.0517 5.91729 34.6119C3.11487 31.8227 3.62214 27.3439 3.62214 20.5532C3.62214 11.3643 2.67913 4.74659 11.9013 4.27425C14.0202 4.19941 14.6439 4.17446 19.9776 4.17446L20.0524 4.22436C28.9154 4.22436 35.869 3.29632 36.2865 12.5168C36.3813 14.6207 36.4029 15.2527 36.4029 20.5782C36.4012 28.7975 36.5576 32.152 34.0845 34.6368Z" fill="#445964"/>
<path d="M30.6965 12.3272C32.0183 12.3272 33.0898 11.2557 33.0898 9.93393C33.0898 8.61216 32.0183 7.54065 30.6965 7.54065C29.3747 7.54065 28.3032 8.61216 28.3032 9.93393C28.3032 11.2557 29.3747 12.3272 30.6965 12.3272Z" fill="#445964"/>
</svg>
