<svg width="107" height="96" viewBox="0 0 107 96" fill="none" xmlns="http://www.w3.org/2000/svg">
<path d="M61.8398 47.8721C61.8398 52.6504 57.9739 56.5164 53.1956 56.5164C48.4173 56.5164 44.5513 52.6504 44.5513 47.8721C44.5513 43.0938 48.4173 39.2278 53.1956 39.2278C57.9739 39.2278 61.8398 43.0938 61.8398 47.8721Z" fill="black"/>
<path d="M53.1955 57.1806C48.0634 57.1806 43.8862 53.0047 43.8862 47.8714C43.8862 42.738 48.0634 38.5621 53.1955 38.5621C58.3275 38.5621 62.5047 42.738 62.5047 47.8714C62.5047 53.0047 58.3275 57.1806 53.1955 57.1806ZM53.1955 39.892C48.7949 39.892 45.2161 43.4708 45.2161 47.8714C45.2161 52.272 48.7949 55.8507 53.1955 55.8507C57.5961 55.8507 61.1748 52.272 61.1748 47.8714C61.1748 43.4708 57.5961 39.892 53.1955 39.892Z" fill="black"/>
<path d="M32.5478 95.0863C30.2724 95.0863 28.2004 94.565 26.3878 93.5383C23.3556 91.8188 21.2597 88.8558 20.1559 84.7345C18.8726 79.9376 19.0255 73.566 20.5974 66.2782C7.92092 61.9175 0.665039 55.2269 0.665039 47.8712C0.665039 40.5143 7.91959 33.8249 20.5961 29.4655C19.0242 22.1764 18.8699 15.8049 20.1533 11.008C21.2571 6.88534 23.353 3.92234 26.3838 2.20412C28.1951 1.17744 30.2684 0.656128 32.5438 0.656128C38.3794 0.656128 45.6978 4.28673 53.1984 10.8936C60.699 4.29338 68.0147 0.665437 73.8436 0.665437C76.119 0.665437 78.191 1.18675 80.0037 2.21343C83.0318 3.93032 85.1291 6.888 86.2329 11.0053C87.5175 15.8009 87.3633 22.1738 85.79 29.4642C98.4692 33.8236 105.726 40.5143 105.726 47.8712C105.726 55.2282 98.4692 61.9189 85.79 66.2796C87.3619 73.5687 87.5162 79.9402 86.2315 84.7358C85.1277 88.8545 83.0331 91.8121 80.0077 93.529C78.1937 94.5557 76.1204 95.077 73.8463 95.077C68.0134 95.077 60.695 91.4491 53.1971 84.8515C45.6965 91.4571 38.3794 95.0863 32.5478 95.0863ZM25.7162 67.8276C24.3983 74.1007 24.2507 79.4601 25.2959 83.3594C26.0167 86.0537 27.2655 87.9222 29.0117 88.9117C30.0131 89.4795 31.2033 89.7681 32.5478 89.7681C37.0615 89.7681 43.0034 86.7333 49.3324 81.2076C46.1606 78.0132 43.0646 74.3972 40.1189 70.4475C35.0241 69.8942 30.1833 69.0138 25.7162 67.8276ZM57.0604 81.2049C63.388 86.7253 69.3313 89.7575 73.8449 89.7588C75.1895 89.7588 76.3797 89.4702 77.3838 88.9023C79.1246 87.9156 80.3707 86.0511 81.0902 83.3607C82.1355 79.4588 81.9892 74.1007 80.6713 67.8289C76.2002 69.0152 71.358 69.8956 66.2646 70.4488C63.3202 74.3986 60.2282 78.0132 57.0604 81.2049ZM47.299 71.002C49.23 73.3639 51.2062 75.5675 53.1957 77.5717C55.1799 75.5689 57.1575 73.3652 59.0871 71.002C57.1043 71.0964 55.1294 71.1443 53.1957 71.1443C51.2607 71.1443 49.2845 71.0964 47.299 71.002ZM43.0207 65.3979C46.3388 65.6811 49.7606 65.8248 53.1957 65.8248C56.6335 65.8248 60.0513 65.6811 63.3641 65.3992C65.3403 62.6277 67.2247 59.7232 68.9682 56.7616C70.6545 53.8956 72.2411 50.9047 73.6853 47.8699C72.2451 44.8431 70.6599 41.8535 68.9696 38.9809C67.2301 36.0259 65.3456 33.1214 63.3641 30.3433C60.054 30.0613 56.6362 29.9177 53.1957 29.9177C49.754 29.9177 46.3348 30.0613 43.0261 30.3446C41.0445 33.1188 39.1574 36.0232 37.4152 38.9822C35.7263 41.8535 34.141 44.8431 32.6994 47.8739C34.1384 50.8981 35.7236 53.8877 37.4139 56.7629C39.1481 59.7086 41.0325 62.6117 43.0207 65.3979ZM76.4568 54.2268C75.5179 56.0168 74.5445 57.7723 73.551 59.4586C72.5496 61.1635 71.4844 62.8737 70.3779 64.56C73.5351 64.0733 76.5553 63.4496 79.3826 62.6982C78.598 59.9732 77.6152 57.1313 76.4568 54.2268ZM27.0022 62.6968C29.8309 63.4469 32.8497 64.072 36.0029 64.5587C34.8898 62.8618 33.8245 61.1502 32.8298 59.4586C31.839 57.7736 30.8642 56.0208 29.9266 54.2308C28.7736 57.122 27.7922 59.9613 27.0022 62.6968ZM79.5488 47.8712C81.5809 52.3809 83.2366 56.8387 84.4801 61.1396C94.3239 57.6765 100.407 52.6243 100.407 47.8712C100.407 43.1182 94.3239 38.066 84.4801 34.6029C83.2393 38.9038 81.5822 43.3616 79.5488 47.8712ZM21.9061 34.6056C12.0662 38.0673 5.9846 43.1195 5.9846 47.8712C5.9846 52.6243 12.0662 57.6765 21.9087 61.1382C23.1508 56.836 24.8065 52.3782 26.836 47.8739C24.8052 43.3682 23.1495 38.9104 21.9061 34.6056ZM27.0009 33.0456C27.7908 35.7772 28.7723 38.6179 29.9266 41.5144C30.8629 39.7296 31.8363 37.9755 32.8311 36.2852C33.8312 34.5843 34.8964 32.8741 36.0069 31.1838C32.8497 31.6692 29.8309 32.2942 27.0009 33.0456ZM70.3806 31.1824C71.4937 32.8807 72.5589 34.5909 73.5537 36.2852C74.5458 37.9702 75.5206 39.7243 76.4595 41.5144C77.6152 38.6192 78.5966 35.7785 79.3866 33.0443C76.5539 32.2929 73.5351 31.6678 70.3806 31.1824ZM32.5438 5.97569C31.1993 5.97569 30.0104 6.26295 29.0103 6.83214C27.2655 7.82158 26.0154 9.69007 25.2933 12.3844C24.2493 16.2877 24.3956 21.6458 25.7149 27.9162C30.1833 26.73 35.0268 25.8482 40.1229 25.295C43.0713 21.3439 46.1673 17.7306 49.335 14.5389C43.0048 9.0105 37.0588 5.97569 32.5438 5.97569ZM66.2659 25.2937C71.3594 25.8469 76.2015 26.7273 80.6726 27.9136C81.9918 21.6418 82.1395 16.2823 81.0928 12.3804C80.372 9.6914 79.1246 7.8269 77.3824 6.84012C76.3797 6.27226 75.1895 5.98367 73.8436 5.98367C69.3313 5.98367 63.3907 9.01715 57.0617 14.5389C60.2269 17.7293 63.3202 21.3439 66.2659 25.2937ZM53.1957 24.5981C55.1294 24.5981 57.1043 24.646 59.0885 24.7404C57.1601 22.3812 55.1839 20.1789 53.1984 18.1734C51.2075 20.1816 49.2326 22.3839 47.3043 24.7404C49.2872 24.646 51.2621 24.5981 53.1957 24.5981Z" fill="black"/>
<path d="M32.5438 1.32191C38.5203 1.32191 45.8373 5.19189 53.1996 11.7842C60.5606 5.19721 67.8736 1.33122 73.8448 1.33122C76.0033 1.33122 77.9662 1.82328 79.6777 2.79277C82.545 4.4179 84.5345 7.23859 85.5904 11.1791C87.0227 16.3882 86.7222 22.8023 85.0133 29.9039C97.2775 34.0013 105.061 40.4659 105.061 47.8721C105.061 55.2782 97.2775 61.7428 85.0119 65.8416C86.7953 73.519 87.0945 80.106 85.5891 84.5651C84.5332 88.5042 82.545 91.3263 79.6804 92.9514C77.9662 93.9222 76.4089 94.4182 74.2518 94.4182C74.2505 94.4182 73.6985 94.4182 73.6972 94.4182C67.7234 94.4182 60.5552 90.5483 53.1956 83.964C45.8347 90.5549 38.5203 94.4222 32.5464 94.4222C30.388 94.4222 28.4251 93.9302 26.7135 92.9607C23.8436 91.3316 21.8528 88.5069 20.7982 84.5638C19.2156 79.6205 19.5348 73.1227 21.3753 65.8402C9.11241 61.7415 1.32989 55.2782 1.32989 47.8721C1.32989 40.4672 9.11241 34.0026 21.374 29.9039C20.4604 25.8358 19.8765 22.0589 19.8566 18.6145C19.8406 15.8935 20.2117 13.3627 20.7968 11.1804C21.8528 7.23593 23.8423 4.41125 26.7122 2.78346C28.4224 1.81264 30.3853 1.32191 32.5438 1.32191ZM25.2121 28.7403C29.8361 27.4702 34.9708 26.51 40.4832 25.9249C43.651 21.6559 46.9664 17.8179 50.3058 14.5091C43.8265 8.7294 37.5175 5.31025 32.5438 5.31025C31.0822 5.31025 29.7842 5.62677 28.6817 6.25315C26.776 7.33435 25.4209 9.33849 24.6509 12.2124C23.5098 16.4707 23.7691 22.2265 25.2121 28.7403ZM81.1752 28.7389C82.6181 22.2251 82.8774 16.468 81.7364 12.2097C80.9677 9.34115 79.6126 7.341 77.7108 6.26245C76.607 5.63608 75.3051 5.31956 73.8448 5.31956C68.875 5.31956 62.57 8.73472 56.0921 14.5091C59.4302 17.8179 62.7416 21.6559 65.9067 25.9236C71.4165 26.5087 76.5512 27.4689 81.1752 28.7389ZM45.8506 25.4847C48.2471 25.3424 50.6502 25.2187 53.1491 25.2187C55.6479 25.2187 58.1428 25.3437 60.5393 25.4847C58.1348 22.4539 55.6666 19.685 53.197 17.2341C50.7273 19.685 48.2577 22.4539 45.8506 25.4847ZM53.1956 66.4905C56.8675 66.4905 60.3824 66.3296 63.7257 66.0357C65.7458 63.2203 67.6994 60.2307 69.54 57.1002C71.3393 54.0428 72.9671 50.9481 74.4207 47.8721C72.9671 44.796 71.3393 41.7027 69.5413 38.6466C67.6994 35.5147 65.7471 32.5265 63.7257 29.7111C60.3837 29.4145 56.8688 29.2536 53.1956 29.2536C49.5225 29.2536 46.0062 29.4145 42.6629 29.7098C40.6401 32.5251 38.6852 35.5147 36.8433 38.6453C35.0453 41.7027 33.4175 44.7974 31.9639 47.8734C33.4175 50.9494 35.0439 54.0428 36.842 57.0989C38.6839 60.2294 40.6375 63.219 42.6589 66.0344C46.0036 66.3296 49.5211 66.4905 53.1956 66.4905ZM76.5299 43.1018C78.026 39.4991 79.2641 35.9616 80.2084 32.5783C76.8131 31.6447 73.0629 30.8734 69 30.3082C70.3672 32.3389 71.6984 34.4442 72.9791 36.6225C74.2478 38.7756 75.4274 40.9407 76.5299 43.1018ZM29.8547 43.1031C30.9559 40.942 32.1368 38.777 33.4029 36.6225C34.6849 34.4442 36.0174 32.3403 37.3859 30.3095C33.3231 30.8734 29.5728 31.6461 26.1776 32.5797C27.1218 35.9629 28.3599 39.4991 29.8547 43.1031ZM84.0331 61.9982C94.7733 58.3596 101.072 53.0134 101.072 47.8721C101.072 42.7307 94.7733 37.3846 84.0331 33.746C82.7657 38.2743 81.0156 43.0326 78.82 47.8707C81.0156 52.7102 82.7657 57.4686 84.0331 61.9982ZM22.3555 61.9968C23.6215 57.4699 25.3703 52.7115 27.566 47.8747C25.3703 43.0366 23.6202 38.2769 22.3541 33.7486C11.6153 37.3872 5.31956 42.732 5.31956 47.8721C5.31956 53.0134 11.6166 58.3583 22.3555 61.9968ZM69 65.4359C73.0629 64.8721 76.8131 64.1007 80.2084 63.1658C79.2628 59.7826 78.0247 56.2451 76.5299 52.6411C75.4274 54.8021 74.2465 56.9672 72.9791 59.1216C71.6984 61.3 70.3672 63.4052 69 65.4359ZM37.3819 65.4346C36.0148 63.4039 34.6835 61.3 33.4015 59.1229C32.1355 56.9699 30.9559 54.8061 29.8547 52.6464C28.3599 56.2477 27.1231 59.7839 26.1789 63.1658C29.5728 64.0981 33.3217 64.8694 37.3819 65.4346ZM32.5477 90.4326C37.5202 90.4326 43.8265 87.0147 50.3044 81.2377C46.9624 77.9276 43.6483 74.0882 40.4792 69.8179C34.9695 69.2341 29.8374 68.2739 25.2147 67.0039C23.7731 73.5177 23.5138 79.2735 24.6535 83.5318C25.4222 86.4043 26.7787 88.4085 28.6831 89.4897C29.7842 90.1161 31.0862 90.4326 32.5477 90.4326ZM73.8448 90.4246C75.3064 90.4246 76.6057 90.1081 77.7108 89.4817C79.6126 88.4032 80.9651 86.403 81.7324 83.5331C82.8735 79.2735 82.6141 73.5177 81.1725 67.0052C76.5485 68.2753 71.4151 69.2354 65.9041 69.8193C62.7389 74.0882 59.4262 77.9263 56.0881 81.2364C62.566 87.0081 68.8724 90.4233 73.8448 90.4246ZM53.1956 78.5128C55.6652 76.0604 58.1335 73.2903 60.5393 70.2595C58.1441 70.4017 55.8062 70.7023 53.306 70.7023C50.8045 70.7023 48.2431 70.4017 45.8466 70.2595C48.2537 73.2916 50.7247 76.0618 53.1956 78.5128ZM32.0716 0.0917628C29.6792 0.0917628 27.9689 0.541266 26.0565 1.62513C22.8661 3.43511 20.6638 6.53375 19.5122 10.8359C18.2355 15.6063 18.3458 21.8767 19.826 29.0302C7.20668 33.4946 0 40.3249 0 47.8721C0 55.4205 7.20801 62.2495 19.8273 66.714C18.3472 73.8674 18.2368 80.1379 19.5148 84.9082C20.6652 89.2077 22.8661 92.3064 26.0592 94.119C27.9742 95.2042 30.275 95.6657 32.6661 95.6657C38.6333 95.6657 45.6365 92.2944 53.197 85.7367C60.7561 92.2878 67.8776 95.7428 73.8435 95.7441C76.236 95.7441 78.4197 95.1949 80.3347 94.1097C83.5225 92.3024 85.7221 89.2077 86.8724 84.9109C88.1505 80.1392 88.0401 73.8688 86.5599 66.7166C99.1819 62.2509 106.391 55.4205 106.391 47.8721C106.391 40.3236 99.1832 33.4933 86.5612 29.0289C88.0427 21.874 88.1518 15.6036 86.8738 10.8333C85.7221 6.53641 83.5211 3.44176 80.332 1.63444C78.4183 0.550575 76.2346 0 73.8435 0C67.8789 0 60.7587 3.45639 53.1983 10.0101C45.6365 3.45107 38.4817 0.0877728 32.5132 0.0877728L32.0716 0.0917628ZM26.2254 27.0952C25.611 24.0045 25.1988 21.108 25.1762 18.5679C25.1562 16.2805 25.4701 14.2897 25.9342 12.5555C26.6084 10.0393 27.7535 8.30783 29.3374 7.40882C30.2364 6.89814 31.3322 6.55237 32.5597 6.55237C36.7901 6.55237 42.357 9.44887 48.3628 14.5769C45.4091 17.5998 42.5219 20.9857 39.7637 24.6642C34.9961 25.1961 30.4505 26.0113 26.2254 27.0952ZM58.0338 14.5796C64.0382 9.45552 69.6184 6.64945 73.8435 6.64945C75.0723 6.64945 76.1535 6.90878 77.0539 7.41946C78.6351 8.31581 79.7788 10.0433 80.4517 12.5542C81.6141 16.3018 81.4638 21.2836 80.1618 27.0939C75.9368 26.0113 71.3925 25.1948 66.6262 24.6655C63.8693 20.9883 60.9848 17.6024 58.0338 14.5796ZM48.7711 24.0138C50.2286 22.285 51.7088 20.6492 53.197 19.1225C54.6851 20.6492 56.1639 22.285 57.6202 24.0138C56.132 23.9606 54.6519 23.934 53.1956 23.934C51.7394 23.934 50.2606 23.9606 48.7711 24.0138ZM43.3877 30.9825C46.5861 30.7178 49.8815 30.529 53.1956 30.529C56.5084 30.529 59.8039 30.7178 63.0009 30.9825C64.9053 33.6675 66.7193 36.4696 68.3949 39.3195C70.0201 42.0831 71.5508 44.957 72.9472 47.8707C71.5494 50.7859 70.0187 53.6611 68.3936 56.4246C66.7166 59.2759 64.904 62.0766 62.9996 64.7617C59.8039 65.0263 56.5084 65.3814 53.1956 65.3814C49.8802 65.3814 46.5834 65.025 43.3837 64.7604C41.478 62.0766 39.664 59.2746 37.987 56.4233C36.3619 53.6611 34.8325 50.7872 33.4361 47.8721C34.8325 44.957 36.3632 42.0817 37.9883 39.3182C39.6666 36.4683 41.4819 33.6662 43.3877 30.9825ZM76.365 39.9246C75.6349 38.5708 74.8861 37.2409 74.1268 35.9483C73.3687 34.6596 72.5748 33.3656 71.7529 32.0796C74.1121 32.4812 76.3876 32.9613 78.554 33.5159C77.9329 35.5985 77.2001 37.7423 76.365 39.9246ZM27.8319 33.5159C29.9983 32.9613 32.2738 32.4812 34.633 32.0796C33.8098 33.3656 33.0159 34.6596 32.2578 35.9469C31.4985 37.2396 30.7497 38.5695 30.0196 39.9233C29.1845 37.7436 28.453 35.5998 27.8319 33.5159ZM80.2788 47.8707C82.1606 43.6656 83.7193 39.5031 84.9202 35.4682C94.1004 38.8182 99.7418 43.5114 99.7418 47.8721C99.7418 52.2328 94.1004 56.926 84.9202 60.276C83.7179 56.2397 82.1606 52.0759 80.2788 47.8707ZM21.4671 60.2746C12.2895 56.9246 6.64945 52.2315 6.64945 47.8721C6.64945 43.5127 12.2895 38.8195 21.4658 35.4695C22.6667 39.5057 24.224 43.6683 26.1058 47.8734C24.2253 52.0772 22.668 56.2397 21.4671 60.2746ZM71.7516 63.6659C72.5735 62.3785 73.3687 61.0845 74.1254 59.7972C74.8861 58.5045 75.6349 57.1733 76.365 55.8195C77.2001 58.0019 77.9316 60.147 78.554 62.2309C76.3863 62.7828 74.1108 63.2642 71.7516 63.6659ZM27.8333 62.2282C28.4543 60.1456 29.1858 58.0032 30.0196 55.8235C30.7484 57.176 31.4971 58.5059 32.2565 59.7972C33.0132 61.0845 33.8072 62.3772 34.6304 63.6645C32.2725 63.2616 29.9983 62.7815 27.8333 62.2282ZM32.5477 89.1027C31.3189 89.1027 30.2391 88.8433 29.3387 88.3327C27.7561 87.4337 26.6111 85.7035 25.9382 83.1873C24.833 79.4038 24.9581 74.4207 26.2281 68.6476C30.4518 69.7302 34.9947 70.5467 39.7597 71.076C42.5193 74.7545 45.4065 78.1417 48.3615 81.1672C42.357 86.2966 36.7755 89.104 32.5477 89.1027ZM66.6249 71.0787C71.3912 70.548 75.9354 69.7328 80.1605 68.6503C81.63 74.954 81.7457 79.9783 80.4491 83.1887C79.7775 85.7008 78.6351 87.4283 77.0552 88.3234C76.1535 88.834 75.0737 89.0934 73.8462 89.0934V90.4233L73.8448 89.0934C69.6158 89.0934 64.0342 86.2873 58.0311 81.1659C60.9835 78.1431 63.868 74.7571 66.6249 71.0787ZM53.1956 76.6243C51.7061 75.0976 50.2246 73.4605 48.7671 71.7303C50.2566 71.7835 51.7381 71.8101 53.1956 71.8101C54.6519 71.8101 56.132 71.7835 57.6202 71.7303C56.1639 73.4605 54.6838 75.0976 53.1956 76.6243Z" fill="black"/>
</svg>
